<svg fill="#000000" version="1.1" xmlns="http://www.w3.org/2000/svg" xmlns:xlink="http://www.w3.org/1999/xlink"
    width="512.000000pt" height="512.000000pt" viewBox="0 0 512.000000 512.000000" preserveAspectRatio="xMidYMid meet">

    <g transform="translate(0.000000,512.000000) scale(0.100000,-0.100000)" fill="#000000" stroke="none">
        <path d="M2330 3989 c-405 -43 -832 -223 -1165 -492 -239 -193 -533 -560 -597 -746 -32 -93 -32 -297 0 -384 75 -204 372 -567 626 -766 746 -584 1739 -640 2530 -142 292 183 581 476 757 767 81 135 93 177 93 334 0 157 -12 199 -93 334 -180 297 -489 607 -785 785 -119 73 -311 162 -436 205 -287 97 -630 136 -930 105z m455 -324 c566 -74 1061 -389 1386 -882 73 -110 89 -151 89 -223 0 -70 -16 -112 -79 -207 -339 -517 -851 -839 -1433 -902 -694 -76 -1391 268 -1799 886 -73 110 -89 151 -89 223 0 72 16 113 89 222 416 633 1130 975 1836 883z"/>
        <path d="M2410 3345 c-344 -74 -582 -323 -641 -669 -40 -234 51 -505 226 -681 154 -154 340 -230 565 -230 225 0 411 76 565 230 154 154 230 340 230 565 0 174 -36 297 -125 433 -112 173 -271 287 -480 344 -78 21 -260 26 -340 8z m265 -320 c172 -45 305 -179 350 -352 65 -249 -94 -511 -350 -578 -251 -65 -513 94 -580 350 -89 343 237 669 580 580z"/>
    </g>
</svg>
