<svg fill="#000000" version="1.1" xmlns="http://www.w3.org/2000/svg" xmlns:xlink="http://www.w3.org/1999/xlink"
    width="512.000000pt" height="512.000000pt" viewBox="0 0 512.000000 512.000000" preserveAspectRatio="xMidYMid meet">

    <g transform="translate(0.000000,512.000000) scale(0.100000,-0.100000)" fill="#000000" stroke="none">
        <path d="M4205 4411 c-28 -13 -565 -545 -1767 -1747 -1882 -1885 -1764 -1759 -1739 -1851 15 -54 75 -108 129 -118 76 -13 102 8 455 362 l328 329 119 -47 c620 -249 1256 -216 1872 97 499 254 906 687 974 1036 16 83 16 93 0 175 -53 274 -323 613 -688 866 l-89 61 300 301 c320 320 338 343 326 417 -9 52 -65 114 -113 128 -50 13 -61 13 -107 -9z m-931 -1491 c73 -143 102 -334 75 -486 -54 -305 -256 -539 -549 -636 -87 -29 -107 -31 -230 -32 -173 -1 -295 30 -417 106 l-35 21 117 117 117 117 52 -19 c28 -11 85 -22 126 -25 234 -17 452 151 501 384 15 73 7 183 -19 248 l-19 50 116 118 c129 131 119 129 165 37z"/>
        <path d="M2388 3940 c-299 -27 -580 -110 -870 -257 -496 -251 -906 -686 -974 -1035 -16 -83 -16 -93 0 -175 31 -162 144 -358 307 -536 93 -102 227 -219 245 -215 9 2 165 153 348 336 l333 332 -8 48 c-30 183 16 395 121 556 113 174 272 286 485 344 63 17 263 23 321 10 30 -7 39 1 270 232 131 131 240 243 242 249 5 15 -24 27 -138 55 -211 51 -483 74 -682 56z"/>
    </g>
</svg>
