<svg fill="#000000" version="1.1" xmlns="http://www.w3.org/2000/svg" xmlns:xlink="http://www.w3.org/1999/xlink"
    width="512.000000pt" height="512.000000pt" viewBox="0 0 512.000000 512.000000" preserveAspectRatio="xMidYMid meet">

    <g transform="translate(0.000000,512.000000) scale(0.100000,-0.100000)" fill="#000000" stroke="none">
        <path d="M2389 4464 c-326 -59 -617 -303 -729 -611 -53 -148 -60 -217 -60 -614 l0 -359 -108 0 c-65 0 -131 -6 -167 -15 -172 -45 -305 -179 -350 -352 -22 -85 -22 -1421 0 -1506 45 -173 178 -307 350 -352 52 -13 211 -15 1235 -15 1024 0 1183 2 1235 15 172 45 305 179 350 352 22 85 22 1421 0 1506 -45 173 -178 307 -350 352 -36 9 -102 15 -166 15 l-108 0 -3 398 c-4 367 -6 403 -25 473 -51 184 -141 337 -271 460 -223 214 -533 308 -833 253z m306 -319 c182 -38 352 -170 434 -335 66 -134 71 -174 71 -577 l0 -353 -640 0 -640 0 0 353 c0 403 5 443 71 577 126 255 419 395 704 335z m1071 -1611 c15 -11 37 -33 48 -48 21 -27 21 -36 21 -726 0 -690 0 -699 -21 -726 -11 -15 -33 -37 -48 -48 -27 -21 -31 -21 -1206 -21 -1175 0 -1179 0 -1206 21 -15 11 -37 33 -48 48 -21 27 -21 39 -24 699 -2 370 0 686 3 704 7 40 49 91 90 109 24 11 242 13 1197 11 1161 -2 1167 -2 1194 -23z"/>
        <path d="M2460 2223 c-247 -86 -295 -396 -87 -560 24 -19 25 -24 29 -151 3 -142 10 -160 72 -206 39 -29 133 -29 172 0 62 46 69 64 72 206 4 127 5 132 29 151 48 38 75 72 102 127 21 45 26 69 26 135 0 73 -3 86 -36 145 -76 138 -236 203 -379 153z"/>
    </g>
</svg>
